<?xml version="1.0" encoding="UTF-8" standalone="no"?>
<svg
   xmlns:dc="http://purl.org/dc/elements/1.1/"
   xmlns:cc="http://creativecommons.org/ns#"
   xmlns:rdf="http://www.w3.org/1999/02/22-rdf-syntax-ns#"
   xmlns:svg="http://www.w3.org/2000/svg"
   xmlns="http://www.w3.org/2000/svg"
   xmlns:sodipodi="http://sodipodi.sourceforge.net/DTD/sodipodi-0.dtd"
   xmlns:inkscape="http://www.inkscape.org/namespaces/inkscape"
   width="519.68433pt"
   height="563.95245pt"
   viewBox="0 0 513.72697 560.32152"
   version="1.1"
   id="svg1141"
   sodipodi:docname="2tree-FE.svg"
   inkscape:version="1.0.2 (e86c8708, 2021-01-15)">
  <metadata
     id="metadata1147">
    <rdf:RDF>
      <cc:Work
         rdf:about="">
        <dc:format>image/svg+xml</dc:format>
        <dc:type
           rdf:resource="http://purl.org/dc/dcmitype/StillImage" />
        <dc:title></dc:title>
      </cc:Work>
    </rdf:RDF>
  </metadata>
  <defs
     id="defs1145" />
  <sodipodi:namedview
     pagecolor="#ffffff"
     bordercolor="#666666"
     borderopacity="1"
     objecttolerance="10"
     gridtolerance="10"
     guidetolerance="10"
     inkscape:pageopacity="0"
     inkscape:pageshadow="2"
     inkscape:window-width="1920"
     inkscape:window-height="1052"
     id="namedview1143"
     showgrid="false"
     inkscape:zoom="1.4163694"
     inkscape:cx="317.92888"
     inkscape:cy="492.45903"
     inkscape:window-x="0"
     inkscape:window-y="0"
     inkscape:window-maximized="0"
     inkscape:current-layer="svg1141">
    <inkscape:grid
       type="xygrid"
       id="grid5764"
       originx="19.61412"
       originy="-1.6057115" />
  </sodipodi:namedview>
  <g
     id="graph0"
     class="graph"
     transform="translate(225.83063,54.5341)">
    <title
       id="title1127">g</title>
    <text
       text-anchor="middle"
       x="17.838341"
       y="-37.668865"
       font-family="Times, serif"
       font-size="22px"
       id="text1131"
       style="font-style:normal;font-variant:normal;font-weight:normal;font-stretch:normal;font-family:Futura;-inkscape-font-specification:Futura">0</text>
    <!-- 0@0 -->
    <g
       id="node1"
       class="node"
       transform="translate(1.0522273,5.2611363)">
      <title
         id="title1133">0@0</title>
      <circle
         fill="none"
         stroke="#000000"
         cx="16.26"
         cy="-16.26"
         id="ellipse1135"
         r="16.030001" />
      <text
         text-anchor="middle"
         x="16.26"
         y="-12.56"
         font-family="Times, serif"
         font-size="14px"
         id="text1137"
         style="letter-spacing:0px" />
    </g>
  </g>
  <text
     text-anchor="middle"
     x="40.438873"
     y="95.141396"
     font-family="Times, serif"
     font-size="21.8506px"
     id="text1153"
     style="font-style:normal;font-variant:normal;font-weight:normal;font-stretch:normal;font-family:Futura;-inkscape-font-specification:Futura;stroke-width:0.993209">1</text>
  <g
     id="node1-3"
     class="node"
     transform="matrix(0.99320943,0,0,0.99320943,-1.0375454,205.83458)">
    <title
       id="title1155">1@0</title>
    <circle
       fill="none"
       stroke="#000000"
       cx="41.259998"
       cy="-84.790001"
       id="ellipse1157"
       r="16.030001" />
    <text
       text-anchor="middle"
       x="41.259998"
       y="-81.089996"
       font-family="Times, serif"
       font-size="14px"
       id="text1159" />
  </g>
  <g
     id="node2"
     class="node"
     transform="matrix(0.99320943,0,0,0.99320943,-1.0375454,205.83458)">
    <title
       id="title1162">1@1</title>
    <circle
       fill="none"
       stroke="#000000"
       cx="16.26"
       cy="-16.26"
       id="ellipse1164"
       r="16.030001" />
    <text
       text-anchor="middle"
       x="16.26"
       y="-12.56"
       font-family="Times, serif"
       font-size="14px"
       id="text1166" />
  </g>
  <g
     id="edge1"
     class="edge"
     transform="matrix(0.99320943,0,0,0.99320943,-1.0375454,205.83458)">
    <title
       id="title1169">1@0-&gt;1@1</title>
    <path
       fill="none"
       stroke="#000000"
       d="m 35.84,-69.36 c -3.08,8.2 -7.01,18.67 -10.55,28.07"
       id="path1171" />
    <polygon
       fill="#000000"
       stroke="#000000"
       points="28.47,-39.8 21.68,-31.67 21.92,-42.26 "
       id="polygon1173" />
  </g>
  <g
     id="node3"
     class="node"
     transform="matrix(0.99320943,0,0,0.99320943,-1.0375454,205.83458)">
    <title
       id="title1176">1@2</title>
    <circle
       fill="none"
       stroke="#000000"
       cx="67.260002"
       cy="-16.26"
       id="ellipse1178"
       r="16.030001" />
    <text
       text-anchor="middle"
       x="67.260002"
       y="-12.56"
       font-family="Times, serif"
       font-size="14px"
       id="text1180" />
  </g>
  <g
     id="edge2"
     class="edge"
     transform="matrix(0.99320943,0,0,0.99320943,-1.0375454,205.83458)">
    <title
       id="title1183">1@0-&gt;1@2</title>
    <path
       fill="none"
       stroke="#000000"
       d="m 46.91,-69.36 c 3.23,8.29 7.38,18.89 11.08,28.37"
       id="path1185" />
    <polygon
       fill="#000000"
       stroke="#000000"
       points="61.25,-42.26 61.63,-31.67 54.73,-39.71 "
       id="polygon1187" />
  </g>
  <text
     text-anchor="middle"
     x="243.40083"
     y="94.088081"
     font-family="Times, serif"
     font-size="21.9022px"
     id="text1281"
     style="font-style:normal;font-variant:normal;font-weight:normal;font-stretch:normal;font-family:Futura;-inkscape-font-specification:Futura;stroke-width:0.995553">3</text>
  <g
     id="node1-9"
     class="node"
     transform="matrix(0.99555269,0,0,0.99555269,201.28674,274.22959)">
    <title
       id="title1283">3@0</title>
    <circle
       fill="none"
       stroke="#000000"
       cx="41.259998"
       cy="-153.32001"
       id="ellipse1285"
       r="16.030001" />
    <text
       text-anchor="middle"
       x="41.259998"
       y="-149.62"
       font-family="Times, serif"
       font-size="14px"
       id="text1287" />
  </g>
  <g
     id="node2-1"
     class="node"
     transform="matrix(0.99555269,0,0,0.99555269,201.28674,274.22959)">
    <title
       id="title1290">3@1</title>
    <circle
       fill="none"
       stroke="#000000"
       cx="16.26"
       cy="-84.790001"
       id="ellipse1292"
       r="16.030001" />
    <text
       text-anchor="middle"
       x="16.26"
       y="-81.089996"
       font-family="Times, serif"
       font-size="14px"
       id="text1294" />
  </g>
  <g
     id="edge1-7"
     class="edge"
     transform="matrix(0.99555269,0,0,0.99555269,201.28674,274.22959)">
    <title
       id="title1297">3@0-&gt;3@1</title>
    <path
       fill="none"
       stroke="#000000"
       d="m 35.84,-137.88 c -3.08,8.19 -7.01,18.66 -10.55,28.06"
       id="path1299" />
    <polygon
       fill="#000000"
       stroke="#000000"
       points="21.92,-110.79 28.47,-108.33 21.68,-100.2 "
       id="polygon1301" />
  </g>
  <g
     id="node3-2"
     class="node"
     transform="matrix(0.99555269,0,0,0.99555269,201.28674,274.22959)">
    <title
       id="title1304">3@2</title>
    <circle
       fill="none"
       stroke="#000000"
       cx="67.260002"
       cy="-84.790001"
       id="ellipse1306"
       r="16.030001" />
    <text
       text-anchor="middle"
       x="67.260002"
       y="-81.089996"
       font-family="Times, serif"
       font-size="14px"
       id="text1308" />
  </g>
  <g
     id="edge2-3"
     class="edge"
     transform="matrix(0.99555269,0,0,0.99555269,201.28674,274.22959)">
    <title
       id="title1311">3@0-&gt;3@2</title>
    <path
       fill="none"
       stroke="#000000"
       d="m 46.91,-137.88 c 3.23,8.28 7.38,18.88 11.08,28.36"
       id="path1313" />
    <polygon
       fill="#000000"
       stroke="#000000"
       points="54.73,-108.24 61.25,-110.79 61.63,-100.2 "
       id="polygon1315" />
  </g>
  <g
     id="node4"
     class="node"
     transform="matrix(0.99555269,0,0,0.99555269,201.28674,274.22959)">
    <title
       id="title1318">3@3</title>
    <circle
       fill="none"
       stroke="#000000"
       cx="41.259998"
       cy="-16.26"
       id="ellipse1320"
       r="16.030001" />
    <text
       text-anchor="middle"
       x="41.259998"
       y="-12.56"
       font-family="Times, serif"
       font-size="14px"
       id="text1322" />
  </g>
  <g
     id="edge3"
     class="edge"
     transform="matrix(0.99555269,0,0,0.99555269,201.28674,274.22959)">
    <title
       id="title1325">3@2-&gt;3@3</title>
    <path
       fill="none"
       stroke="#000000"
       d="m 61.62,-69.36 c -3.23,8.29 -7.38,18.89 -11.08,28.37"
       id="path1327" />
    <polygon
       fill="#000000"
       stroke="#000000"
       points="47.27,-42.26 53.79,-39.71 46.89,-31.67 "
       id="polygon1329" />
  </g>
  <g
     id="node5"
     class="node"
     transform="matrix(0.99555269,0,0,0.99555269,201.28674,274.22959)">
    <title
       id="title1332">3@4</title>
    <circle
       fill="none"
       stroke="#000000"
       cx="92.260002"
       cy="-16.26"
       id="ellipse1334"
       r="16.030001" />
    <text
       text-anchor="middle"
       x="92.260002"
       y="-12.56"
       font-family="Times, serif"
       font-size="14px"
       id="text1336" />
  </g>
  <g
     id="edge4"
     class="edge"
     transform="matrix(0.99555269,0,0,0.99555269,201.28674,274.22959)">
    <title
       id="title1339">3@2-&gt;3@4</title>
    <path
       fill="none"
       stroke="#000000"
       d="m 72.69,-69.36 c 3.08,8.2 7.01,18.67 10.54,28.07"
       id="path1341" />
    <polygon
       fill="#000000"
       stroke="#000000"
       points="80.06,-39.8 86.61,-42.26 86.85,-31.67 "
       id="polygon1343" />
  </g>
  <text
     text-anchor="middle"
     x="143.86002"
     y="94.405182"
     font-family="Times, serif"
     font-size="21.9022px"
     id="text1203"
     style="font-style:normal;font-variant:normal;font-weight:normal;font-stretch:normal;font-family:Futura;-inkscape-font-specification:Futura;stroke-width:0.995553">2</text>
  <g
     id="node1-7"
     class="node"
     transform="matrix(0.99555269,0,0,0.99555269,76.448657,275.07282)">
    <title
       id="title1205">2@0</title>
    <circle
       fill="none"
       stroke="#000000"
       cx="66.260002"
       cy="-153.32001"
       id="ellipse1207"
       r="16.030001" />
    <text
       text-anchor="middle"
       x="66.260002"
       y="-149.62"
       font-family="Times, serif"
       font-size="14px"
       id="text1209" />
  </g>
  <g
     id="node2-13"
     class="node"
     transform="matrix(0.99555269,0,0,0.99555269,76.448657,275.07282)">
    <title
       id="title1212">2@1</title>
    <circle
       fill="none"
       stroke="#000000"
       cx="41.259998"
       cy="-84.790001"
       id="ellipse1214"
       r="16.030001" />
    <text
       text-anchor="middle"
       x="41.259998"
       y="-81.089996"
       font-family="Times, serif"
       font-size="14px"
       id="text1216" />
  </g>
  <g
     id="edge1-8"
     class="edge"
     transform="matrix(0.99555269,0,0,0.99555269,76.448657,275.07282)">
    <title
       id="title1219">2@0-&gt;2@1</title>
    <path
       fill="none"
       stroke="#000000"
       d="m 60.84,-137.88 c -3.08,8.19 -7.01,18.66 -10.55,28.06"
       id="path1221" />
    <polygon
       fill="#000000"
       stroke="#000000"
       points="46.92,-110.79 53.47,-108.33 46.68,-100.2 "
       id="polygon1223" />
  </g>
  <g
     id="node3-4"
     class="node"
     transform="matrix(0.99555269,0,0,0.99555269,76.448657,275.07282)">
    <title
       id="title1226">2@2</title>
    <circle
       fill="none"
       stroke="#000000"
       cx="92.260002"
       cy="-84.790001"
       id="ellipse1228"
       r="16.030001" />
    <text
       text-anchor="middle"
       x="92.260002"
       y="-81.089996"
       font-family="Times, serif"
       font-size="14px"
       id="text1230" />
  </g>
  <g
     id="edge2-8"
     class="edge"
     transform="matrix(0.99555269,0,0,0.99555269,76.448657,275.07282)">
    <title
       id="title1233">2@0-&gt;2@2</title>
    <path
       fill="none"
       stroke="#000000"
       d="m 71.91,-137.88 c 3.23,8.28 7.38,18.88 11.08,28.36"
       id="path1235" />
    <polygon
       fill="#000000"
       stroke="#000000"
       points="79.73,-108.24 86.25,-110.79 86.63,-100.2 "
       id="polygon1237" />
  </g>
  <g
     id="node4-0"
     class="node"
     transform="matrix(0.99555269,0,0,0.99555269,76.448657,275.07282)">
    <title
       id="title1240">2@3</title>
    <circle
       fill="none"
       stroke="#000000"
       cx="16.26"
       cy="-16.26"
       id="ellipse1242"
       r="16.030001" />
    <text
       text-anchor="middle"
       x="16.26"
       y="-12.56"
       font-family="Times, serif"
       font-size="14px"
       id="text1244" />
  </g>
  <g
     id="edge3-4"
     class="edge"
     transform="matrix(0.99555269,0,0,0.99555269,76.448657,275.07282)">
    <title
       id="title1247">2@1-&gt;2@3</title>
    <path
       fill="none"
       stroke="#000000"
       d="m 35.84,-69.36 c -3.08,8.2 -7.01,18.67 -10.55,28.07"
       id="path1249" />
    <polygon
       fill="#000000"
       stroke="#000000"
       points="21.92,-42.26 28.47,-39.8 21.68,-31.67 "
       id="polygon1251" />
  </g>
  <g
     id="node5-6"
     class="node"
     transform="matrix(0.99555269,0,0,0.99555269,76.448657,275.07282)">
    <title
       id="title1254">2@4</title>
    <circle
       fill="none"
       stroke="#000000"
       cx="67.260002"
       cy="-16.26"
       id="ellipse1256"
       r="16.030001" />
    <text
       text-anchor="middle"
       x="67.260002"
       y="-12.56"
       font-family="Times, serif"
       font-size="14px"
       id="text1258" />
  </g>
  <g
     id="edge4-0"
     class="edge"
     transform="matrix(0.99555269,0,0,0.99555269,76.448657,275.07282)">
    <title
       id="title1261">2@1-&gt;2@4</title>
    <path
       fill="none"
       stroke="#000000"
       d="m 46.91,-69.36 c 3.23,8.29 7.38,18.89 11.08,28.37"
       id="path1263" />
    <polygon
       fill="#000000"
       stroke="#000000"
       points="54.73,-39.71 61.25,-42.26 61.63,-31.67 "
       id="polygon1265" />
  </g>
  <text
     text-anchor="middle"
     x="422.41644"
     y="94.709045"
     font-family="Times, serif"
     font-size="21.9022px"
     id="text1359"
     style="font-style:normal;font-variant:normal;font-weight:normal;font-stretch:normal;font-family:Futura;-inkscape-font-specification:Futura;stroke-width:0.995553">4</text>
  <g
     id="node1-32"
     class="node"
     transform="matrix(0.99555269,0,0,0.99555269,330.06895,273.88862)">
    <title
       id="title1361">4@0</title>
    <circle
       fill="none"
       stroke="#000000"
       cx="92.260002"
       cy="-153.32001"
       id="ellipse1363"
       r="16.030001" />
    <text
       text-anchor="middle"
       x="92.260002"
       y="-149.62"
       font-family="Times, serif"
       font-size="14px"
       id="text1365" />
  </g>
  <g
     id="node2-6"
     class="node"
     transform="matrix(0.99555269,0,0,0.99555269,330.06895,273.88862)">
    <title
       id="title1368">4@1</title>
    <circle
       fill="none"
       stroke="#000000"
       cx="67.260002"
       cy="-84.790001"
       id="ellipse1370"
       r="16.030001" />
    <text
       text-anchor="middle"
       x="67.260002"
       y="-81.089996"
       font-family="Times, serif"
       font-size="14px"
       id="text1372" />
  </g>
  <g
     id="edge1-9"
     class="edge"
     transform="matrix(0.99555269,0,0,0.99555269,330.06895,273.88862)">
    <title
       id="title1375">4@0-&gt;4@1</title>
    <path
       fill="none"
       stroke="#000000"
       d="m 86.84,-137.88 c -3.08,8.19 -7.01,18.66 -10.55,28.06"
       id="path1377" />
    <polygon
       fill="#000000"
       stroke="#000000"
       points="72.92,-110.79 79.47,-108.33 72.68,-100.2 "
       id="polygon1379" />
  </g>
  <g
     id="node3-41"
     class="node"
     transform="matrix(0.99555269,0,0,0.99555269,330.06895,273.88862)">
    <title
       id="title1382">4@2</title>
    <circle
       fill="none"
       stroke="#000000"
       cx="118.26"
       cy="-84.790001"
       id="ellipse1384"
       r="16.030001" />
    <text
       text-anchor="middle"
       x="118.26"
       y="-81.089996"
       font-family="Times, serif"
       font-size="14px"
       id="text1386" />
  </g>
  <g
     id="edge2-37"
     class="edge"
     transform="matrix(0.99555269,0,0,0.99555269,330.06895,273.88862)">
    <title
       id="title1389">4@0-&gt;4@2</title>
    <path
       fill="none"
       stroke="#000000"
       d="m 97.91,-137.88 c 3.23,8.28 7.38,18.88 11.08,28.36"
       id="path1391" />
    <polygon
       fill="#000000"
       stroke="#000000"
       points="105.73,-108.24 112.25,-110.79 112.63,-100.2 "
       id="polygon1393" />
  </g>
  <g
     id="node4-8"
     class="node"
     transform="matrix(0.99555269,0,0,0.99555269,330.06895,273.88862)">
    <title
       id="title1396">4@3</title>
    <circle
       fill="none"
       stroke="#000000"
       cx="16.26"
       cy="-16.26"
       id="ellipse1398"
       r="16.030001" />
    <text
       text-anchor="middle"
       x="16.26"
       y="-12.56"
       font-family="Times, serif"
       font-size="14px"
       id="text1400" />
  </g>
  <g
     id="edge3-8"
     class="edge"
     transform="matrix(0.99555269,0,0,0.99555269,330.06895,273.88862)">
    <title
       id="title1403">4@1-&gt;4@3</title>
    <path
       fill="none"
       stroke="#000000"
       d="m 57.67,-71.28 c -7.19,9.39 -17.2,22.44 -25.58,33.37"
       id="path1405" />
    <polygon
       fill="#000000"
       stroke="#000000"
       points="29.12,-39.79 34.67,-35.53 25.81,-29.72 "
       id="polygon1407" />
  </g>
  <g
     id="node5-3"
     class="node"
     transform="matrix(0.99555269,0,0,0.99555269,330.06895,273.88862)">
    <title
       id="title1410">4@4</title>
    <circle
       fill="none"
       stroke="#000000"
       cx="67.260002"
       cy="-16.26"
       id="ellipse1412"
       r="16.030001" />
    <text
       text-anchor="middle"
       x="67.260002"
       y="-12.56"
       font-family="Times, serif"
       font-size="14px"
       id="text1414" />
  </g>
  <g
     id="edge4-8"
     class="edge"
     transform="matrix(0.99555269,0,0,0.99555269,330.06895,273.88862)">
    <title
       id="title1417">4@1-&gt;4@4</title>
    <path
       fill="none"
       stroke="#000000"
       d="m 67.26,-68.36 c 0,7.64 0,17.06 0,25.73"
       id="path1419" />
    <polygon
       fill="#000000"
       stroke="#000000"
       points="63.76,-42.61 70.76,-42.61 67.26,-32.61 "
       id="polygon1421" />
  </g>
  <g
     id="node6"
     class="node"
     transform="matrix(0.99555269,0,0,0.99555269,330.06895,273.88862)">
    <title
       id="title1424">4@5</title>
    <circle
       fill="none"
       stroke="#000000"
       cx="118.26"
       cy="-16.26"
       id="ellipse1426"
       r="16.030001" />
    <text
       text-anchor="middle"
       x="118.26"
       y="-12.56"
       font-family="Times, serif"
       font-size="14px"
       id="text1428" />
  </g>
  <g
     id="edge5"
     class="edge"
     transform="matrix(0.99555269,0,0,0.99555269,330.06895,273.88862)">
    <title
       id="title1431">4@2-&gt;4@5</title>
    <path
       fill="none"
       stroke="#000000"
       d="m 118.26,-68.36 c 0,7.64 0,17.06 0,25.73"
       id="path1433" />
    <polygon
       fill="#000000"
       stroke="#000000"
       points="114.76,-42.61 121.76,-42.61 118.26,-32.61 "
       id="polygon1435" />
  </g>
  <g
     id="node7"
     class="node"
     transform="matrix(0.99555269,0,0,0.99555269,330.06895,273.88862)">
    <title
       id="title1438">4@6</title>
    <circle
       fill="none"
       stroke="#000000"
       cx="169.25999"
       cy="-16.26"
       id="ellipse1440"
       r="16.030001" />
    <text
       text-anchor="middle"
       x="169.25999"
       y="-12.56"
       font-family="Times, serif"
       font-size="14px"
       id="text1442" />
  </g>
  <g
     id="edge6"
     class="edge"
     transform="matrix(0.99555269,0,0,0.99555269,330.06895,273.88862)">
    <title
       id="title1445">4@2-&gt;4@6</title>
    <path
       fill="none"
       stroke="#000000"
       d="m 127.86,-71.28 c 7.19,9.39 17.2,22.44 25.57,33.37"
       id="path1447" />
    <polygon
       fill="#000000"
       stroke="#000000"
       points="150.85,-35.53 156.41,-39.79 159.71,-29.72 "
       id="polygon1449" />
  </g>
  <text
     text-anchor="middle"
     x="241.93459"
     y="313.24106"
     font-family="Times, serif"
     font-size="21.8497px"
     id="text1465"
     style="font-style:normal;font-variant:normal;font-weight:normal;font-stretch:normal;font-family:Futura;-inkscape-font-specification:Futura;stroke-width:0.993169">49</text>
  <g
     id="node1-35"
     class="node"
     transform="matrix(0.99316859,0,0,0.99316859,48.50506,560.05338)">
    <title
       id="title1467">49@0</title>
    <circle
       fill="none"
       stroke="#000000"
       cx="194.25999"
       cy="-221.84"
       id="ellipse1469"
       r="16.030001" />
    <text
       text-anchor="middle"
       x="194.25999"
       y="-218.14"
       font-family="Times, serif"
       font-size="14px"
       id="text1471" />
  </g>
  <g
     id="node2-4"
     class="node"
     transform="matrix(0.99316859,0,0,0.99316859,48.50506,560.05338)">
    <title
       id="title1474">49@1</title>
    <circle
       fill="none"
       stroke="#000000"
       cx="143.25999"
       cy="-153.32001"
       id="ellipse1476"
       r="16.030001" />
    <text
       text-anchor="middle"
       x="143.25999"
       y="-149.62"
       font-family="Times, serif"
       font-size="14px"
       id="text1478" />
  </g>
  <g
     id="edge1-3"
     class="edge"
     transform="matrix(0.99316859,0,0,0.99316859,48.50506,560.05338)">
    <title
       id="title1481">49@0-&gt;49@1</title>
    <path
       fill="none"
       stroke="#000000"
       d="m 184.67,-208.33 c -7.19,9.38 -17.2,22.44 -25.58,33.36"
       id="path1483" />
    <polygon
       fill="#000000"
       stroke="#000000"
       points="156.12,-176.84 161.67,-172.58 152.81,-166.77 "
       id="polygon1485" />
  </g>
  <g
     id="node3-6"
     class="node"
     transform="matrix(0.99316859,0,0,0.99316859,48.50506,560.05338)">
    <title
       id="title1488">49@2</title>
    <circle
       fill="none"
       stroke="#000000"
       cx="245.25999"
       cy="-153.32001"
       id="ellipse1490"
       r="16.030001" />
    <text
       text-anchor="middle"
       x="245.25999"
       y="-149.62"
       font-family="Times, serif"
       font-size="14px"
       id="text1492" />
  </g>
  <g
     id="edge2-5"
     class="edge"
     transform="matrix(0.99316859,0,0,0.99316859,48.50506,560.05338)">
    <title
       id="title1495">49@0-&gt;49@2</title>
    <path
       fill="none"
       stroke="#000000"
       d="m 203.86,-208.33 c 7.19,9.38 17.2,22.44 25.57,33.36"
       id="path1497" />
    <polygon
       fill="#000000"
       stroke="#000000"
       points="226.85,-172.58 232.41,-176.84 235.71,-166.77 "
       id="polygon1499" />
  </g>
  <g
     id="node4-9"
     class="node"
     transform="matrix(0.99316859,0,0,0.99316859,48.50506,560.05338)">
    <title
       id="title1502">49@3</title>
    <circle
       fill="none"
       stroke="#000000"
       cx="67.260002"
       cy="-84.790001"
       id="ellipse1504"
       r="16.030001" />
    <text
       text-anchor="middle"
       x="67.260002"
       y="-81.089996"
       font-family="Times, serif"
       font-size="14px"
       id="text1506" />
  </g>
  <g
     id="edge3-5"
     class="edge"
     transform="matrix(0.99316859,0,0,0.99316859,48.50506,560.05338)">
    <title
       id="title1509">49@1-&gt;49@3</title>
    <path
       fill="none"
       stroke="#000000"
       d="m 131.39,-141.92 c -11.87,10.38 -30.32,26.54 -44.39,38.85"
       id="path1511" />
    <polygon
       fill="#000000"
       stroke="#000000"
       points="84.53,-105.55 89.14,-100.28 79.31,-96.33 "
       id="polygon1513" />
  </g>
  <g
     id="node5-4"
     class="node"
     transform="matrix(0.99316859,0,0,0.99316859,48.50506,560.05338)">
    <title
       id="title1516">49@4</title>
    <circle
       fill="none"
       stroke="#000000"
       cx="143.25999"
       cy="-84.790001"
       id="ellipse1518"
       r="16.030001" />
    <text
       text-anchor="middle"
       x="143.25999"
       y="-81.089996"
       font-family="Times, serif"
       font-size="14px"
       id="text1520" />
  </g>
  <g
     id="edge4-9"
     class="edge"
     transform="matrix(0.99316859,0,0,0.99316859,48.50506,560.05338)">
    <title
       id="title1523">49@1-&gt;49@4</title>
    <path
       fill="none"
       stroke="#000000"
       d="m 143.26,-136.89 c 0,7.64 0,17.07 0,25.73"
       id="path1525" />
    <polygon
       fill="#000000"
       stroke="#000000"
       points="139.76,-111.14 146.76,-111.14 143.26,-101.14 "
       id="polygon1527" />
  </g>
  <g
     id="node6-1"
     class="node"
     transform="matrix(0.99316859,0,0,0.99316859,48.50506,560.05338)">
    <title
       id="title1530">49@5</title>
    <circle
       fill="none"
       stroke="#000000"
       cx="245.25999"
       cy="-84.790001"
       id="ellipse1532"
       r="16.030001" />
    <text
       text-anchor="middle"
       x="245.25999"
       y="-81.089996"
       font-family="Times, serif"
       font-size="14px"
       id="text1534" />
  </g>
  <g
     id="edge5-7"
     class="edge"
     transform="matrix(0.99316859,0,0,0.99316859,48.50506,560.05338)">
    <title
       id="title1537">49@2-&gt;49@5</title>
    <path
       fill="none"
       stroke="#000000"
       d="m 245.26,-136.89 c 0,7.64 0,17.07 0,25.73"
       id="path1539" />
    <polygon
       fill="#000000"
       stroke="#000000"
       points="241.76,-111.14 248.76,-111.14 245.26,-101.14 "
       id="polygon1541" />
  </g>
  <g
     id="node7-5"
     class="node"
     transform="matrix(0.99316859,0,0,0.99316859,48.50506,560.05338)">
    <title
       id="title1544">49@6</title>
    <circle
       fill="none"
       stroke="#000000"
       cx="322.26001"
       cy="-84.790001"
       id="ellipse1546"
       r="16.030001" />
    <text
       text-anchor="middle"
       x="322.26001"
       y="-81.089996"
       font-family="Times, serif"
       font-size="14px"
       id="text1548" />
  </g>
  <g
     id="edge6-5"
     class="edge"
     transform="matrix(0.99316859,0,0,0.99316859,48.50506,560.05338)">
    <title
       id="title1551">49@2-&gt;49@6</title>
    <path
       fill="none"
       stroke="#000000"
       d="m 257.29,-141.92 c 12.1,10.45 30.94,26.73 45.23,39.07"
       id="path1553" />
    <polygon
       fill="#000000"
       stroke="#000000"
       points="300.46,-100 305.04,-105.3 310.32,-96.11 "
       id="polygon1555" />
  </g>
  <g
     id="node8"
     class="node"
     transform="matrix(0.99316859,0,0,0.99316859,48.50506,560.05338)">
    <title
       id="title1558">49@7</title>
    <circle
       fill="none"
       stroke="#000000"
       cx="16.26"
       cy="-16.26"
       id="ellipse1560"
       r="16.030001" />
    <text
       text-anchor="middle"
       x="16.26"
       y="-12.56"
       font-family="Times, serif"
       font-size="14px"
       id="text1562" />
  </g>
  <g
     id="edge7"
     class="edge"
     transform="matrix(0.99316859,0,0,0.99316859,48.50506,560.05338)">
    <title
       id="title1565">49@3-&gt;49@7</title>
    <path
       fill="none"
       stroke="#000000"
       d="m 57.67,-71.28 c -7.19,9.39 -17.2,22.44 -25.58,33.37"
       id="path1567" />
    <polygon
       fill="#000000"
       stroke="#000000"
       points="29.12,-39.79 34.67,-35.53 25.81,-29.72 "
       id="polygon1569" />
  </g>
  <g
     id="node9"
     class="node"
     transform="matrix(0.99316859,0,0,0.99316859,48.50506,560.05338)">
    <title
       id="title1572">49@8</title>
    <circle
       fill="none"
       stroke="#000000"
       cx="67.260002"
       cy="-16.26"
       id="ellipse1574"
       r="16.030001" />
    <text
       text-anchor="middle"
       x="67.260002"
       y="-12.56"
       font-family="Times, serif"
       font-size="14px"
       id="text1576" />
  </g>
  <g
     id="edge8"
     class="edge"
     transform="matrix(0.99316859,0,0,0.99316859,48.50506,560.05338)">
    <title
       id="title1579">49@3-&gt;49@8</title>
    <path
       fill="none"
       stroke="#000000"
       d="m 67.26,-68.36 c 0,7.64 0,17.06 0,25.73"
       id="path1581" />
    <polygon
       fill="#000000"
       stroke="#000000"
       points="63.76,-42.61 70.76,-42.61 67.26,-32.61 "
       id="polygon1583" />
  </g>
  <g
     id="node10"
     class="node"
     transform="matrix(0.99316859,0,0,0.99316859,48.50506,560.05338)">
    <title
       id="title1586">49@9</title>
    <circle
       fill="none"
       stroke="#000000"
       cx="118.26"
       cy="-16.26"
       id="ellipse1588"
       r="16.030001" />
    <text
       text-anchor="middle"
       x="118.26"
       y="-12.56"
       font-family="Times, serif"
       font-size="14px"
       id="text1590" />
  </g>
  <g
     id="edge9"
     class="edge"
     transform="matrix(0.99316859,0,0,0.99316859,48.50506,560.05338)">
    <title
       id="title1593">49@4-&gt;49@9</title>
    <path
       fill="none"
       stroke="#000000"
       d="m 137.84,-69.36 c -3.08,8.2 -7.01,18.67 -10.55,28.07"
       id="path1595" />
    <polygon
       fill="#000000"
       stroke="#000000"
       points="123.92,-42.26 130.47,-39.8 123.68,-31.67 "
       id="polygon1597" />
  </g>
  <g
     id="node11"
     class="node"
     transform="matrix(0.99316859,0,0,0.99316859,48.50506,560.05338)">
    <title
       id="title1600">49@10</title>
    <circle
       fill="none"
       stroke="#000000"
       cx="169.25999"
       cy="-16.26"
       id="ellipse1602"
       r="16.030001" />
    <text
       text-anchor="middle"
       x="169.25999"
       y="-12.56"
       font-family="Times, serif"
       font-size="14px"
       id="text1604" />
  </g>
  <g
     id="edge10"
     class="edge"
     transform="matrix(0.99316859,0,0,0.99316859,48.50506,560.05338)">
    <title
       id="title1607">49@4-&gt;49@10</title>
    <path
       fill="none"
       stroke="#000000"
       d="m 148.91,-69.36 c 3.23,8.29 7.38,18.89 11.08,28.37"
       id="path1609" />
    <polygon
       fill="#000000"
       stroke="#000000"
       points="156.73,-39.71 163.25,-42.26 163.63,-31.67 "
       id="polygon1611" />
  </g>
  <g
     id="node12"
     class="node"
     transform="matrix(0.99316859,0,0,0.99316859,48.50506,560.05338)">
    <title
       id="title1614">49@11</title>
    <circle
       fill="none"
       stroke="#000000"
       cx="220.25999"
       cy="-16.26"
       id="ellipse1616"
       r="16.030001" />
    <text
       text-anchor="middle"
       x="220.25999"
       y="-12.56"
       font-family="Times, serif"
       font-size="14px"
       id="text1618" />
  </g>
  <g
     id="edge11"
     class="edge"
     transform="matrix(0.99316859,0,0,0.99316859,48.50506,560.05338)">
    <title
       id="title1621">49@5-&gt;49@11</title>
    <path
       fill="none"
       stroke="#000000"
       d="m 239.84,-69.36 c -3.08,8.2 -7.01,18.67 -10.55,28.07"
       id="path1623" />
    <polygon
       fill="#000000"
       stroke="#000000"
       points="225.92,-42.26 232.47,-39.8 225.68,-31.67 "
       id="polygon1625" />
  </g>
  <g
     id="node13"
     class="node"
     transform="matrix(0.99316859,0,0,0.99316859,48.50506,560.05338)">
    <title
       id="title1628">49@12</title>
    <circle
       fill="none"
       stroke="#000000"
       cx="271.26001"
       cy="-16.26"
       id="ellipse1630"
       r="16.030001" />
    <text
       text-anchor="middle"
       x="271.26001"
       y="-12.56"
       font-family="Times, serif"
       font-size="14px"
       id="text1632" />
  </g>
  <g
     id="edge12"
     class="edge"
     transform="matrix(0.99316859,0,0,0.99316859,48.50506,560.05338)">
    <title
       id="title1635">49@5-&gt;49@12</title>
    <path
       fill="none"
       stroke="#000000"
       d="m 250.91,-69.36 c 3.23,8.29 7.38,18.89 11.08,28.37"
       id="path1637" />
    <polygon
       fill="#000000"
       stroke="#000000"
       points="258.73,-39.71 265.25,-42.26 265.63,-31.67 "
       id="polygon1639" />
  </g>
  <g
     id="node14"
     class="node"
     transform="matrix(0.99316859,0,0,0.99316859,48.50506,560.05338)">
    <title
       id="title1642">49@13</title>
    <circle
       fill="none"
       stroke="#000000"
       cx="322.26001"
       cy="-16.26"
       id="ellipse1644"
       r="16.030001" />
    <text
       text-anchor="middle"
       x="322.26001"
       y="-12.56"
       font-family="Times, serif"
       font-size="14px"
       id="text1646" />
  </g>
  <g
     id="edge13"
     class="edge"
     transform="matrix(0.99316859,0,0,0.99316859,48.50506,560.05338)">
    <title
       id="title1649">49@6-&gt;49@13</title>
    <path
       fill="none"
       stroke="#000000"
       d="m 322.26,-68.36 c 0,7.64 0,17.06 0,25.73"
       id="path1651" />
    <polygon
       fill="#000000"
       stroke="#000000"
       points="318.76,-42.61 325.76,-42.61 322.26,-32.61 "
       id="polygon1653" />
  </g>
  <g
     id="node15"
     class="node"
     transform="matrix(0.99316859,0,0,0.99316859,48.50506,560.05338)">
    <title
       id="title1656">49@14</title>
    <circle
       fill="none"
       stroke="#000000"
       cx="373.26001"
       cy="-16.26"
       id="ellipse1658"
       r="16.030001" />
    <text
       text-anchor="middle"
       x="373.26001"
       y="-12.56"
       font-family="Times, serif"
       font-size="14px"
       id="text1660" />
  </g>
  <g
     id="edge14"
     class="edge"
     transform="matrix(0.99316859,0,0,0.99316859,48.50506,560.05338)">
    <title
       id="title1663">49@6-&gt;49@14</title>
    <path
       fill="none"
       stroke="#000000"
       d="m 331.86,-71.28 c 7.19,9.39 17.2,22.44 25.57,33.37"
       id="path1665" />
    <polygon
       fill="#000000"
       stroke="#000000"
       points="354.85,-35.53 360.41,-39.79 363.71,-29.72 "
       id="polygon1667" />
  </g>
</svg>
